<?xml version="1.0" standalone="no"?><!DOCTYPE svg PUBLIC "-//W3C//DTD SVG 1.1//EN" "http://www.w3.org/Graphics/SVG/1.1/DTD/svg11.dtd"><svg t="1564927672084" class="icon" viewBox="0 0 1024 1024" version="1.1" xmlns="http://www.w3.org/2000/svg" p-id="4073" xmlns:xlink="http://www.w3.org/1999/xlink" width="200" height="200"><defs><style type="text/css"></style></defs><path d="M1023.850597 256.45793c0-70.644967-57.268308-127.913275-127.913275-127.913275l-767.479649 0c-70.644967 0-127.913275 57.268308-127.913275 127.913275l0 511.653099c0 70.644967 57.268308 127.913275 127.913275 127.913275l767.479649 0c70.644967 0 127.913275-57.268308 127.913275-127.913275L1023.850597 256.45793zM959.382307 768.622682c0 35.322483-28.634154 63.956637-63.956637 63.956637l-767.479649 0c-35.322483 0-63.956637-28.634154-63.956637-63.956637l0-511.653099c0-35.322483 28.634154-63.956637 63.956637-63.956637l767.479649 0c35.322483 0 63.956637 28.634154 63.956637 63.956637L959.382307 768.622682z" p-id="4074"></path><path d="M732.833571 391.967206 519.450692 608.309486l-105.678878-104.213503-185.249121 185.951109c-12.491499 12.491499-12.491499 33.093722 0 45.585221 6.246261 6.246261 14.427594 9.55154 22.60995 9.55154s16.363689-3.031033 22.60995-9.277294l140.030243-139.953496 105.678878 105.70139L771.403005 441.619046l60.066027 64.001663L831.469032 320.92622 663.432944 320.92622 732.833571 391.967206z" p-id="4075"></path></svg>