<?xml version="1.0" standalone="no"?><!DOCTYPE svg PUBLIC "-//W3C//DTD SVG 1.1//EN" "http://www.w3.org/Graphics/SVG/1.1/DTD/svg11.dtd"><svg t="1564927757221" class="icon" viewBox="0 0 1088 1024" version="1.1" xmlns="http://www.w3.org/2000/svg" p-id="6651" xmlns:xlink="http://www.w3.org/1999/xlink" width="212.5" height="200"><defs><style type="text/css"></style></defs><path d="M713.728 50.816H310.336c-38.4 0-73.664 20.16-92.224 52.8L13.568 461.12a102.528 102.528 0 0 0 0 101.76l204.544 357.568c18.56 32.512 53.888 52.736 92.16 52.736h403.456c38.336 0 73.6-20.224 92.16-52.736l204.608-357.504a102.528 102.528 0 0 0 0-101.824l-204.544-357.568a105.984 105.984 0 0 0-92.224-52.736z m0 76.8c10.816 0 20.608 5.44 25.6 14.08L943.808 499.2a25.6 25.6 0 0 1 0 25.536l-204.48 357.568a29.312 29.312 0 0 1-25.6 13.952H310.336a29.312 29.312 0 0 1-25.6-14.016L80.192 524.8a25.92 25.92 0 0 1 0-25.6l204.544-357.568a29.312 29.312 0 0 1 25.6-14.016h403.392zM512 298.752a213.312 213.312 0 1 0 0 426.56 213.312 213.312 0 0 0 0-426.56m0 76.8a136.704 136.704 0 1 1-0.32 273.28A136.704 136.704 0 0 1 512 375.552" p-id="6652"></path></svg>