<?xml version="1.0" standalone="no"?><!DOCTYPE svg PUBLIC "-//W3C//DTD SVG 1.1//EN" "http://www.w3.org/Graphics/SVG/1.1/DTD/svg11.dtd"><svg t="1564927782366" class="icon" viewBox="0 0 1024 1024" version="1.1" xmlns="http://www.w3.org/2000/svg" p-id="7409" xmlns:xlink="http://www.w3.org/1999/xlink" width="200" height="200"><defs><style type="text/css"></style></defs><path d="M0 0" p-id="7410"></path><path d="M989.866667 375.466667h-102.4v-73.181867C887.466667 162.440533 728.234667 0 512 0 295.7312 0 136.533333 162.5088 136.533333 302.2848V375.466667H34.133333c-34.133333 0-34.133333 22.3232-34.133333 34.133333v341.333333c0 11.810133 0 34.133333 34.133333 34.133334h102.4c34.133333 0 34.133333-22.3232 34.133334-34.133334V302.318933C170.666667 184.7296 322.901333 42.666667 512 42.666667c189.064533 0 341.333333 142.0288 341.333333 259.652266v553.688178C853.333333 901.597867 816.298667 955.733333 770.730667 955.733333H716.8v-34.133333c0-11.810133 0-34.133333-34.133333-34.133333H531.387733c-34.167467 0-61.986133 32.085333-61.986133 70.314666 0 34.178844 27.818667 66.218667 61.986133 66.218667H682.666667c34.133333 0 34.133333-22.289067 34.133333-34.133333h53.930667C839.7824 989.866667 887.466667 925.115733 887.466667 855.995733V785.066667h102.4c34.133333 0 34.133333-22.3232 34.133333-34.133334V409.6c0-11.844267 0-34.133333-34.133333-34.133333z" p-id="7411"></path><path d="M819.2 472.8832v-86.2208C819.2 222.276267 676.670578 88.4736 512 88.4736c-164.6592 0-307.2 134.178133-307.2 299.1104v75.5712c0 156.535467 133.9392 388.881067 307.2 388.881067 160.847644-0.034133 307.2-208.475022 307.2-379.153067z" p-id="7412"></path></svg>